<?xml version="1.0" ?><!DOCTYPE svg  PUBLIC '-//W3C//DTD SVG 1.1//EN'  'http://www.w3.org/Graphics/SVG/1.1/DTD/svg11.dtd'><svg enable-background="new 0 0 512 512" height="512px" version="1.1" viewBox="0 0 512 512" width="512px" xml:space="preserve" xmlns="http://www.w3.org/2000/svg" xmlns:xlink="http://www.w3.org/1999/xlink"><g id="Colors"><rect fill="#FFFFFF" height="267" stroke="#231F20" stroke-miterlimit="10" width="267" x="-779" y="-512"/><rect fill="#FBD50A" height="267" stroke="#231F20" stroke-miterlimit="10" width="267" x="-779" y="-244"/><rect fill="#C61934" height="267" stroke="#231F20" stroke-miterlimit="10" width="267" x="-779" y="23"/><rect fill="#96212C" height="267" stroke="#231F20" stroke-miterlimit="10" width="267" x="-779" y="290"/><rect fill="#202C3C" height="267" stroke="#231F20" stroke-miterlimit="10" width="267" x="-779" y="557"/><rect fill="#ED1C24" height="267" stroke="#231F20" stroke-miterlimit="10" width="267" x="-779" y="825"/></g><g id="Icon"><ellipse cx="258.375" cy="255.649" fill="#FBD50A" rx="254.776" ry="252.774"/></g><g id="Layer_5"><rect fill="#FFFFFF" height="151.26" transform="matrix(0.8316 0.5554 -0.5554 0.8316 216.644 -115.53)" width="10.667" x="293.482" y="223.822"/><rect fill="none" height="151.26" stroke="#202C3C" stroke-miterlimit="10" transform="matrix(0.8316 0.5554 -0.5554 0.8316 216.5222 -115.43)" width="3.902" x="296.638" y="223.671"/><path d="M211.862,384c0,3.452-2.798,6.25-6.25,6.25l0,0c-3.452,0-6.25-2.798-6.25-6.25l0,0   c0-3.452,2.798-6.25,6.25-6.25l0,0C209.064,377.75,211.862,380.548,211.862,384L211.862,384z" fill="#FFFFFF"/><path d="M328.333,431c0-39.396-31.937-71.333-71.333-71.333S185.667,391.604,185.667,431" fill="#202C3C"/><rect fill="#FFFFFF" height="151.26" transform="matrix(-0.6984 0.7157 -0.7157 -0.6984 636.234 91.6107)" width="10.667" x="293.482" y="104.225"/><rect fill="none" height="151.26" stroke="#202C3C" stroke-miterlimit="10" transform="matrix(-0.696 0.7181 -0.7181 -0.696 635.9281 90.4492)" width="3.902" x="296.864" y="104.225"/><circle cx="345.256" cy="229" fill="#202C3C" r="16.205"/><rect fill="#202C3C" height="9.117" transform="matrix(0.7154 -0.6987 0.6987 0.7154 -19.4133 208.3405)" width="23.149" x="234.456" y="123.441"/><g><path d="M221.227,101.751c0,4.971,4.029,9,9,9h22.397c4.971,0,9-4.029,9-9V79.336c0-4.971-4.029-9-9-9h-22.397    c-4.971,0-9,4.029-9,9V101.751z" fill="#C61934"/></g><rect fill="#96212C" height="56.231" transform="matrix(0.7154 -0.6987 0.6987 0.7154 -10.9989 187.4217)" width="47.142" x="200.989" y="79.096"/><circle cx="170.362" cy="158.149" fill="#FFFFFF" r="29"/><polygon fill="#ED1C24" points="234.565,137.452 226.977,219.073 113.428,102.818 195.274,97.226  "/></g></svg>